<svg xmlns="http://www.w3.org/2000/svg" width="128" height="128" viewBox="55.121 87.125 145.284 94.252">
  <path d="m61.907 87.219.706-.002.772.002.822-.001q1.369 0 2.737.003h1.958q2.111 0 4.221.002 3.051.003 6.103.003 4.951.001 9.902.005l13.193.006q12.338.004 24.677.013c-.904.704-1.861 1.194-2.891 1.688-9.18 4.519-15.79 12.465-19.199 22.074-.508 1.55-.853 3.138-1.16 4.739l-.172.891c-1.652 10.269 1.446 20.389 7.377 28.75 5.92 7.779 15.021 12.812 24.634 14.254 1.585.181 3.162.176 4.755.167l.981.006c3.349-.006 6.535-.424 9.754-1.349l.812-.232c4.133-1.222 8.014-3.041 11.441-5.685.42-.303.42-.303.904-.303.579.281.961.636 1.391 1.111.38.412.38.412.89.793.911.758 1.425 1.254 1.633 2.45a28 28 0 0 1 .019 1.804c.177 1.819 1.642 2.953 2.894 4.154a178 178 0 0 1 .957.926l.425.407c.307.355.307.355.307.855a49249 49249 0 0 1-47.714.055h-.506q-8.123.007-16.244.021-8.584.015-17.168.018-5.142.002-10.284.014-3.525.007-7.05.005-2.034-.002-4.069.006-1.863.007-3.726.002-.673-.001-1.347.004c-2.755.018-5.191-.011-7.36-1.922a7.93 7.93 0 0 1-2.065-5.351l-.003-.699v-.765l-.003-.815q-.004-1.356-.005-2.711l-.005-1.94q-.007-2.915-.01-5.829l-.004-2.746a11382 11382 0 0 1-.011-12.094q-.003-4.767-.017-9.535-.012-4.896-.013-9.793 0-2.75-.009-5.497-.009-2.586-.004-5.171 0-.949-.005-1.897-.005-1.296.001-2.592l-.008-.756c.022-2.369.809-4.103 2.413-5.832 1.28-1.184 2.643-1.713 4.375-1.712" fill="#F8F4BB"/>
  <path d="M154.5 87.25q6.236-.035 12.472-.052 2.896-.007 5.792-.024 2.526-.015 5.051-.018 1.335-.002 2.672-.012c.997-.008 1.994-.008 2.99-.008l.884-.011c2.343.012 4.77.442 6.501 2.154 2.438 2.957 2.099 6.226 2.078 9.872l.007 1.953q.008 2.37-.002 4.739-.006 1.927-.004 3.854l.001.555.001 1.118a3040 3040 0 0 1-.012 10.461q-.011 4.481-.004 8.963a3396 3396 0 0 1 0 11.54l-.001.553q-.002 1.923.002 3.846a814 814 0 0 1-.009 5.183q-.003.95.001 1.899.003 1.299-.009 2.598l.008.753c-.027 1.842-.555 3.214-1.418 4.832-.75 0-.75 0-1.101-.332l-.384-.48a42 42 0 0 0-2.5-2.703l-.362-.365a37 37 0 0 0-2.083-1.919c-1.565-1.355-2.982-2.868-4.421-4.354l-.676-.686-.604-.621c-.835-.726-1.609-1.283-2.743-1.296l-.595.077c-1.081.034-1.551-.158-2.348-.89a38 38 0 0 1-.967-1.055l-.508-.542A68 68 0 0 1 171 145.5c.317-.927.764-1.667 1.331-2.464 4.209-5.931 6.031-13.156 6.028-20.349l.001-.634c-.023-10.049-3.86-18.889-10.86-26.053l-.502-.54c-3.488-3.671-7.933-5.92-12.498-7.96z" fill="#F9F4BB"/>
  <path d="m123.999 107.873.93-.009 1.018.006 1.074-.005q1.458-.006 2.916 0c1.018.003 2.034 0 3.052-.001q2.562-.003 5.125.005 2.963.007 5.925-.002 2.543-.006 5.087-.003 1.519.004 3.038-.002 1.428-.004 2.856.005.524.002 1.048-.002c.477-.003.954.002 1.431.006l.809.001c.874.159 1.167.416 1.69 1.126.127.537.127.537.13 1.127l.011.68-.004.741.008.785q.009 1.286.005 2.571l.006 1.786q.005 1.873.001 3.744c-.003 1.6.006 3.2.017 4.8q.01 1.844.006 3.689.001.885.008 1.77.007 1.237-.003 2.474l.011.74c-.018 1.121-.087 1.686-.747 2.618-1.269.843-2.897.647-4.356.635l-1.042.007q-1.412.007-2.824-.001-1.479-.003-2.959.002-2.484.002-4.968-.007a802 802 0 0 0-5.739.002q-2.466.009-4.933.003-1.472-.004-2.944.002-1.384.005-2.768-.006a118 118 0 0 0-1.497.005c-2.449-.029-2.449-.029-3.374-.643-.79-1.117-.756-2.018-.735-3.358l-.005-.786a194 194 0 0 1 .01-2.571q.001-.893-.001-1.787 0-1.871.015-3.743.014-2.4.008-4.801-.002-1.844.006-3.689.003-.885.002-1.77.001-1.236.014-2.472l-.004-.741.011-.68.003-.59c.336-1.417 1.308-1.663 2.627-1.665" fill="#FEFEFD"/>
  <path d="m147.25 87.75.504.089c6.758 1.253 12.793 4.729 17.746 9.411l.614.566c6.281 5.984 9.972 14.789 10.219 23.41.127 9.041-2.817 16.952-8.334 24.024.748 1.492 2.02 2.521 3.225 3.64l.505.486.466.436c.305.438.305.438.264.952-.327.76-.882 1.228-1.474 1.798l-.696.676-.539.512c-.841-.364-1.386-.828-2.027-1.478l-.571-.576-.589-.602-.601-.608q-.732-.741-1.462-1.486a70 70 0 0 0-2.381 1.629A42.5 42.5 0 0 1 155 154.75l-.777.365c-4.291 1.914-8.954 2.492-13.613 2.479l-.566-.001c-9.396-.036-17.769-3.875-24.416-10.459L115 146.5l-.573-.574c-2.827-2.971-4.826-6.42-6.427-10.176l-.293-.631c-.897-2.021-1.277-4.211-1.707-6.369l-.137-.627c-.973-4.734-.666-9.982.637-14.623l.138-.503c1.459-5.178 4.14-9.681 7.612-13.746l.641-.813c.801-.904 1.685-1.662 2.609-2.438l.582-.515c8.014-6.895 18.814-9.6 29.168-7.735m-30.031 15.641c-3.391 4.234-5.592 9.264-6.469 14.609l-.099.557a18 18 0 0 0-.151 1.693l-.049.935c-.257 7.492 2.201 15.236 7.299 20.814l.517.624c4.522 5.348 11.774 9.17 18.733 9.877 6.332.34 12.092-.289 17.75-3.25l.486-.249c2.123-1.101 3.96-2.433 5.764-4.001l.813-.64c.906-.803 1.671-1.674 2.438-2.61l.523-.629c4.397-5.543 6.322-11.946 6.304-18.965l.013-.981c.004-7.758-3.604-14.794-8.903-20.316-5.996-5.781-13.89-8.762-22.166-8.714-8.969.221-16.935 4.609-22.803 11.246M177 151.5c.456.329.456.329.93.76l.531.482c.876.826 1.733 1.669 2.582 2.522l.586.586 1.897 1.901 1.327 1.329q1.564 1.565 3.127 3.132l3.897 3.903 5.719 5.729.506.507.468.471a38 38 0 0 0 .821.794c.65.613.848.828 1.014 1.742-.297 1.692-1.62 2.629-2.88 3.688-.534.449-.534.449-1.029.953l-.496.485-.438.444c-.859.491-1.618.549-2.563.321-.87-.578-1.564-1.309-2.288-2.058l-.665-.662a235 235 0 0 1-1.785-1.807q-.933-.947-1.873-1.887a757 757 0 0 1-3.138-3.17 1208 1208 0 0 0-4.431-4.474 1963 1963 0 0 1-6.256-6.318l-.625-.632-.566-.576-.494-.501c-.558-.613-.625-.894-.707-1.74.096-1.108.341-1.408 1.113-2.188l.66-.667.699-.678.678-.699 1.274-1.261c.906-.594 1.341-.632 2.408-.431" fill="#515151"/>
  <path d="M135.29 119.8c.979.276 1.515.846 2.179 1.576l.405.422a134 134 0 0 1 1.266 1.343 175 175 0 0 0 1.673 1.766l.381.418c.397.431.397.431 1.056.924.788.015 1.108-.135 1.716-.626l.432-.477.483-.514q.495-.541.987-1.084l.483-.512.432-.475c.467-.311.467-.311 1.038-.333 1.008.404 1.67 1.081 2.442 1.831l.499.482q.52.506 1.037 1.017c.525.515 1.06 1.02 1.596 1.524q.505.495 1.008.993l.485.448C156.395 130.06 156 130.508 156 133h-30.5c0-4.457 0-4.457 1.334-5.825l.583-.534.594-.588a76 76 0 0 1 1.252-1.2c.646-.606 1.276-1.226 1.906-1.849q.607-.59 1.216-1.176l.573-.558c.77-.715 1.303-1.209 2.333-1.47" fill="#F9F5BB"/>
  <path d="m123.999 107.873.93-.009 1.018.006 1.074-.005q1.458-.006 2.916 0c1.018.003 2.034 0 3.052-.001q2.562-.003 5.125.005 2.963.007 5.925-.002 2.543-.006 5.087-.003 1.519.004 3.038-.002 1.428-.004 2.856.005.524.002 1.048-.002c.477-.003.954.002 1.431.006l.809.001c.874.159 1.167.416 1.69 1.126.127.537.127.537.13 1.127l.011.68-.004.741.008.785q.009 1.286.005 2.571l.006 1.786q.005 1.873.001 3.744c-.003 1.6.006 3.2.017 4.8q.01 1.844.006 3.689.001.885.008 1.77.007 1.237-.003 2.474l.011.74c-.018 1.121-.087 1.686-.747 2.618-1.269.843-2.897.647-4.356.635l-1.042.007q-1.412.007-2.824-.001-1.479-.003-2.959.002-2.484.002-4.968-.007a802 802 0 0 0-5.739.002q-2.466.009-4.933.003-1.472-.004-2.944.002-1.384.005-2.768-.006a118 118 0 0 0-1.497.005c-2.449-.029-2.449-.029-3.374-.643-.79-1.117-.756-2.018-.735-3.358l-.005-.786a194 194 0 0 1 .01-2.571q.001-.893-.001-1.787 0-1.871.015-3.743.014-2.4.008-4.801-.002-1.844.006-3.689.003-.885.002-1.77.001-1.236.014-2.472l-.004-.741.011-.68.003-.59c.336-1.417 1.308-1.663 2.627-1.665M123.5 110v25l12.162.012 7.436.006q2.707.004 5.414.005 1.435 0 2.869.003 1.349.003 2.697.002l1.468.003.875-.001.764.001c.558.033.558.033.816-.281a65 65 0 0 0 .029-2.3v-.744q0-1.197-.004-2.395l-.001-1.474-.008-5.479L158 110z" fill="#F9F4BC"/>
  <path d="M65.75 120.5h3v3h3v-3h3v3h3v-3h3v3H84v-3h2.75v3H90v-3h2.75v3H96v-3h3v3h3v-3h1l.25 5.75H102v3h-3v-3h-3v3.25h-3v-3.25h-3.25v3H87v-3h-3.25v3H81v-3h-3.25v3h-3v-3h-3v3.25h-3v-3.25h-3z" fill="#50504F"/>
  <path d="M151.5 112.75c1.09.555 1.792 1.105 2.25 2.25.177 1.165.128 2.163-.422 3.219-.588.794-.916 1.171-1.828 1.531-1.312.143-2.129-.062-3.25-.75-.753-.619-1.182-1.317-1.334-2.287-.024-1.36.135-2.164 1.084-3.213 1.119-.763 2.177-.988 3.5-.75" fill="#FAF4BC"/>
  <path d="M179.5 120.5h2.75v5.75h-3v3.25H178l.5-6h1z" fill="#4E4E4E"/>
  <path d="m176.28 151.351.72.149v.25l-.629.133c-1.202.506-1.919 1.308-2.808 2.242l-.509.522a175 175 0 0 0-.926.96 61 61 0 0 1-.878.893l-.75-.25a217 217 0 0 1 2.266-2.375l.642-.686c1.788-1.837 1.788-1.837 2.873-1.837" fill="#5D5E5E"/>
</svg>
